<svg width="390" height="74" viewBox="0 0 390 74" fill="none" xmlns="http://www.w3.org/2000/svg">
<g clip-path="url(#clip0_45_281)">
<path d="M129.865 12.4622H122.003V29.9348H119.693V10.3294H129.865V12.4622ZM151.576 29.9348H149.033L146.955 24.4388H138.642L136.687 29.9348H134.13L141.65 10.3294H144.029L151.576 29.9348ZM146.203 22.3743L143.126 14.0208C143.026 13.7473 142.926 13.3098 142.826 12.7083H142.771C142.68 13.2643 142.575 13.7018 142.457 14.0208L139.408 22.3743H146.203ZM171.646 29.9348H169.349V12.4075H163.908C163.279 17.3476 162.782 20.8385 162.417 22.8802C162.053 24.9218 161.684 26.4257 161.31 27.3919C160.936 28.358 160.43 29.0781 159.792 29.552C159.154 30.0169 158.389 30.2493 157.496 30.2493C156.776 30.2493 156.151 30.1536 155.623 29.9622V27.802C156.087 28.0664 156.602 28.1985 157.167 28.1985C157.733 28.1985 158.261 27.8613 158.753 27.1868C159.255 26.5123 159.761 24.7578 160.271 21.9231C160.79 19.0885 161.365 15.2239 161.994 10.3294H171.646V29.9348ZM195.49 29.9348H192.947L190.869 24.4388H182.556L180.601 29.9348H178.044L185.564 10.3294H187.943L195.49 29.9348ZM190.117 22.3743L187.04 14.0208C186.94 13.7473 186.84 13.3098 186.74 12.7083H186.685C186.594 13.2643 186.489 13.7018 186.371 14.0208L183.322 22.3743H190.117ZM215.533 29.9348H212.333L204.759 20.9661C204.477 20.6289 204.304 20.401 204.24 20.2825H204.185V29.9348H201.888V10.3294H204.185V19.5442H204.24C204.367 19.3437 204.54 19.1204 204.759 18.8743L212.087 10.3294H214.945L206.537 19.7356L215.533 29.9348ZM233.224 12.4075H227.564V29.9348H225.267V12.4075H219.621V10.3294H233.224V12.4075ZM255.619 29.9348H253.322V15.7708C253.322 14.4947 253.367 13.597 253.458 13.0774H253.376C253.203 13.524 252.994 13.9342 252.748 14.3079L242.658 29.9348H239.814V10.3294H242.111V24.138C242.111 25.6145 242.074 26.5761 242.001 27.0227H242.056C242.257 26.6217 242.512 26.1842 242.822 25.7102L252.665 10.3294H255.619V29.9348ZM277.48 29.9348H275.183V21.1165C273.096 22.2194 271.154 22.7708 269.359 22.7708C267.645 22.7708 266.319 22.3287 265.38 21.4446C264.451 20.5514 263.986 19.3027 263.986 17.6985V10.3294H266.283V17.5891C266.283 19.6946 267.404 20.7473 269.646 20.7473C271.268 20.7473 273.114 20.246 275.183 19.2434V10.3294H277.48V29.9348ZM296.689 29.9348H286.298V10.3294H296.251V12.4075H288.595V18.929H295.677V20.9934H288.595V27.8567H296.689V29.9348ZM317.306 29.1145C315.857 29.8802 314.052 30.263 311.892 30.263C309.103 30.263 306.87 29.3652 305.193 27.5696C303.516 25.774 302.677 23.4179 302.677 20.5013C302.677 17.3658 303.621 14.832 305.507 12.8997C307.394 10.9674 309.787 10.0013 312.685 10.0013C314.544 10.0013 316.085 10.2701 317.306 10.8079V13.2552C315.902 12.4713 314.353 12.0794 312.658 12.0794C310.406 12.0794 308.579 12.8313 307.175 14.3352C305.781 15.8391 305.083 17.8489 305.083 20.3645C305.083 22.7526 305.735 24.6575 307.039 26.0794C308.351 27.4921 310.069 28.1985 312.193 28.1985C314.162 28.1985 315.866 27.761 317.306 26.886V29.1145ZM338.443 29.9348H335.244L327.669 20.9661C327.387 20.6289 327.214 20.401 327.15 20.2825H327.095V29.9348H324.798V10.3294H327.095V19.5442H327.15C327.277 19.3437 327.451 19.1204 327.669 18.8743L334.998 10.3294H337.855L329.447 19.7356L338.443 29.9348ZM360.345 29.9348H358.048V15.7708C358.048 14.4947 358.094 13.597 358.185 13.0774H358.103C357.93 13.524 357.72 13.9342 357.474 14.3079L347.384 29.9348H344.54V10.3294H346.837V24.138C346.837 25.6145 346.801 26.5761 346.728 27.0227H346.783C346.983 26.6217 347.238 26.1842 347.548 25.7102L357.392 10.3294H360.345V29.9348ZM384.818 29.9348H382.521V15.7708C382.521 14.4947 382.567 13.597 382.658 13.0774H382.576C382.402 13.524 382.193 13.9342 381.947 14.3079L371.857 29.9348H369.013V10.3294H371.31V24.138C371.31 25.6145 371.274 26.5761 371.201 27.0227H371.255C371.456 26.6217 371.711 26.1842 372.021 25.7102L381.865 10.3294H384.818V29.9348ZM381.919 4.36844C381.783 5.65359 381.263 6.66987 380.361 7.41727C379.468 8.15555 378.346 8.52469 376.998 8.52469C375.612 8.52469 374.482 8.15555 373.607 7.41727C372.741 6.66987 372.267 5.65359 372.185 4.36844H374.4C374.527 6.08198 375.402 6.93875 377.025 6.93875C377.754 6.93875 378.356 6.71544 378.83 6.26883C379.304 5.8131 379.595 5.17964 379.705 4.36844H381.919ZM119.693 66.9348V47.3294H125.271C126.966 47.3294 128.311 47.7441 129.304 48.5735C130.298 49.4029 130.794 50.483 130.794 51.8138C130.794 52.9257 130.494 53.8919 129.892 54.7122C129.29 55.5325 128.461 56.1158 127.404 56.4622V56.5169C128.725 56.6718 129.783 57.1731 130.576 58.0208C131.369 58.8593 131.765 59.9531 131.765 61.302C131.765 62.9791 131.164 64.3372 129.96 65.3763C128.757 66.4153 127.24 66.9348 125.408 66.9348H119.693ZM121.99 49.4075V55.7376H124.341C125.599 55.7376 126.588 55.4368 127.308 54.8352C128.028 54.2246 128.388 53.3678 128.388 52.2649C128.388 50.36 127.135 49.4075 124.628 49.4075H121.99ZM121.99 57.802V64.8567H125.107C126.456 64.8567 127.499 64.5377 128.238 63.8997C128.985 63.2617 129.359 62.3867 129.359 61.2747C129.359 58.9596 127.782 57.802 124.628 57.802H121.99ZM149.634 66.9348H139.244V47.3294H149.197V49.4075H141.54V55.929H148.623V57.9934H141.54V64.8567H149.634V66.9348ZM170.251 66.1145C168.802 66.8802 166.998 67.263 164.837 67.263C162.048 67.263 159.815 66.3652 158.138 64.5696C156.461 62.774 155.623 60.4179 155.623 57.5013C155.623 54.3658 156.566 51.832 158.453 49.8997C160.339 47.9674 162.732 47.0013 165.63 47.0013C167.49 47.0013 169.03 47.2701 170.251 47.8079V50.2552C168.848 49.4713 167.298 49.0794 165.603 49.0794C163.352 49.0794 161.524 49.8313 160.121 51.3352C158.726 52.8391 158.029 54.8489 158.029 57.3645C158.029 59.7526 158.68 61.6575 159.984 63.0794C161.296 64.4921 163.014 65.1985 165.138 65.1985C167.107 65.1985 168.811 64.761 170.251 63.886V66.1145ZM189.337 49.4075H183.677V66.9348H181.38V49.4075H175.734V47.3294H189.337V49.4075ZM210.665 66.9348H208.369V57.9934H198.224V66.9348H195.927V47.3294H198.224V55.929H208.369V47.3294H210.665V66.9348ZM235.111 66.9348H232.814V52.7708C232.814 51.4947 232.86 50.597 232.951 50.0774H232.869C232.695 50.524 232.486 50.9342 232.24 51.3079L222.15 66.9348H219.306V47.3294H221.603V61.138C221.603 62.6145 221.567 63.5761 221.494 64.0227H221.548C221.749 63.6217 222.004 63.1842 222.314 62.7102L232.158 47.3294H235.111V66.9348ZM257.423 66.9348H254.224L246.65 57.9661C246.367 57.6289 246.194 57.401 246.13 57.2825H246.076V66.9348H243.779V47.3294H246.076V56.5442H246.13C246.258 56.3437 246.431 56.1204 246.65 55.8743L253.978 47.3294H256.835L248.427 56.7356L257.423 66.9348Z" fill="#2C145E"/>
<g clip-path="url(#clip1_45_281)">
<path fill-rule="evenodd" clip-rule="evenodd" d="M67.1673 36.5661C67.6422 36.1205 67.673 35.3705 67.2331 34.8896C66.7928 34.4071 66.0528 34.3778 65.5779 34.8235C65.102 35.2676 65.073 36.0191 65.5128 36.5C65.9514 36.981 66.693 37.0104 67.1673 36.5661ZM7.13095 39.3694C7.13095 39.3694 -7.57942 51.8658 24.7443 54.5666C24.7443 54.5666 -16.0618 59.2844 7.13095 39.3694ZM14.6883 41.4271C13.7868 38.2369 14.9743 35.3176 15.6798 33.9748C15.6305 34.1189 15.584 34.263 15.539 34.4057C15.597 34.2851 15.6536 34.1733 15.7073 34.0704C15.896 33.7115 16.0499 33.4659 16.1211 33.357C16.1268 33.3041 16.1326 33.2497 16.1384 33.1968C17.9937 16.7269 31.7976 3.93488 48.5501 3.93488C57.1219 3.93488 64.9204 7.2817 70.7416 12.7582C105.942 7.66807 88.9211 32.0143 88.6535 32.3938C98.365 13.8847 79.6505 18.4844 76.2141 19.459C79.2892 24.4285 81.0955 30.2833 81.173 36.5617C81.175 36.6852 81.176 36.8102 81.176 36.9353C81.176 37.0618 81.175 37.1883 81.173 37.3132C81.0482 50.607 73.1761 62.021 61.9109 67.1507L61.9097 67.1519C60.992 67.5694 60.0503 67.9446 59.0889 68.2773C59.0717 68.2829 59.0557 68.2891 59.0385 68.2935C58.4689 68.445 57.906 68.5876 57.347 68.7185C55.1099 69.2475 52.9614 69.6152 50.9016 69.8494C50.1266 69.9067 49.3423 69.9348 48.5514 69.9348C45.9429 69.9348 43.405 69.6245 40.9736 69.0375C38.5422 68.4524 36.2166 67.5905 34.0289 66.487C34.0289 66.487 34.0289 66.4858 34.0275 66.4858C33.5571 66.2489 33.0926 65.9991 32.6338 65.7386C28.1975 63.8399 16.4593 61.1529 15.5579 60.9473C19.4236 61.7754 23.3911 61.7973 26.7981 61.5132C26.7923 61.5076 26.7851 61.5019 26.7793 61.4957C27.1074 61.4751 27.4369 61.4502 27.7679 61.4222C31.3855 61.0514 34.2496 60.371 35.4804 60.0457C44.2108 57.6897 51.1889 53.1893 58.838 44.7252L59.3153 44.2784L59.4924 44.4728L59.2225 49.0349L63.0463 45.4538L63.7998 41.7461C64.7261 41.1902 65.6973 40.4575 66.6366 39.5782C68.5034 37.8295 69.6443 36.1441 70.3671 34.3983C70.8203 33.3042 71.524 31.7496 71.0916 31.276C70.6636 30.8069 69.0459 31.3863 67.9504 31.7482C66.1704 32.3335 64.4499 33.3645 62.5715 35.1233C61.6747 35.9632 60.9065 36.844 60.3 37.7001L56.4195 38.1913L52.5955 41.7709L57.1059 41.8576L57.283 42.052L56.8058 42.4988C56.8058 42.4988 26.0128 53.4598 17.0401 45.4774C17.0284 45.4668 17.0182 45.4581 17.0067 45.4462H17.0052C16.0936 44.4798 15.4679 43.4902 15.06 42.512C15.0571 42.5077 15.0555 42.5051 15.0555 42.502C14.9249 42.1904 14.8176 41.88 14.729 41.5723C14.7144 41.5237 14.6999 41.4756 14.6884 41.4271H14.6883ZM68.1983 18.2602C67.1692 18.2602 67.1705 16.6423 68.1983 16.6423C69.2273 16.6423 69.2248 18.2602 68.1983 18.2602ZM63.9395 13.5545C62.537 13.5545 62.5383 11.3484 63.9395 11.3484C65.3431 11.3484 65.3412 13.5545 63.9395 13.5545ZM63.3582 25.614C62.3291 25.614 62.3323 23.9966 63.3582 23.9966C64.3879 23.9966 64.3859 25.614 63.3582 25.614ZM68.1011 13.2598C68.5686 13.2598 68.5686 13.9959 68.1011 13.9959C67.6336 13.9959 67.6336 13.2598 68.1011 13.2598ZM60.7454 9.68155C60.2779 9.68155 60.2797 8.94653 60.7454 8.94653C61.2146 8.94653 61.2129 9.68155 60.7454 9.68155ZM56.681 19.7802C56.2135 19.7802 56.2147 19.0441 56.681 19.0441C57.1496 19.0441 57.1485 19.7802 56.681 19.7802ZM55.3265 12.4259C54.8591 12.4259 54.8591 11.6909 55.3265 11.6909C55.794 11.6909 55.794 12.4259 55.3265 12.4259ZM53.9721 6.86275C53.2229 6.86275 53.2241 5.68629 53.9721 5.68629C54.7194 5.68629 54.7182 6.86275 53.9721 6.86275ZM48.4555 9.04338C47.4264 9.04338 47.4277 7.42548 48.4555 7.42548C49.4851 7.42548 49.4821 9.04338 48.4555 9.04338ZM41.0025 18.1134C40.5351 18.1134 40.5369 17.3784 41.0025 17.3784C41.4718 17.3784 41.47 18.1134 41.0025 18.1134ZM35.5837 8.40725C35.1163 8.40725 35.1163 7.67126 35.5837 7.67126C36.0512 7.67126 36.0512 8.40725 35.5837 8.40725Z" fill="url(#paint0_linear_45_281)"/>
</g>
</g>
<defs>
<linearGradient id="paint0_linear_45_281" x1="19.0639" y1="46.4574" x2="96.0934" y2="29.3827" gradientUnits="userSpaceOnUse">
<stop stop-color="#ED1C24"/>
<stop offset="0.4" stop-color="#841844"/>
<stop offset="1" stop-color="#1B1464"/>
</linearGradient>
<clipPath id="clip0_45_281">
<rect width="390" height="74" fill="white"/>
</clipPath>
<clipPath id="clip1_45_281">
<rect width="93" height="66" fill="white" transform="translate(0 3.93484)"/>
</clipPath>
</defs>
</svg>
